<?xml version="1.0" encoding="UTF-8"?>
<svg id="a" data-name="Layer 1" viewBox="0 0 587.01 617.53" xmlns="http://www.w3.org/2000/svg">
 <defs>
  <style>.b {
        fill: #5486bc;
      }

      .b, .c, .d, .e, .f {
        fill-rule: evenodd;
      }

      .c {
        fill: #1b96e3;
      }

      .d {
        fill: #3e4b77;
      }

      .e {
        fill: #3c3c46;
      }

      .f {
        fill: #1375d5;
      }</style>
 </defs>
 <polygon class="e" points="359.12 181.81 290.92 263.57 202.31 422.8 296.41 349.51 341.33 282.47"/>
 <polygon class="d" points="354.51 195.18 296.41 349.51 287.33 463.38 402.14 326.47 405.15 227.55 342.3 165.1"/>
 <polygon class="d" points="354.51 195.18 373.25 246.84 402.14 326.47 475.55 241.31 506.38 172.37 432.6 170.07"/>
 <polygon class="e" points="506.38 172.37 402.14 326.47 431.69 421.7 493.66 289.28"/>
 <polygon class="f" points="354.51 195.18 431.14 183.67 506.38 172.37 581.91 114.38 577.7 83.96 459.71 128.22"/>
 <polygon class="d" points="354.51 195.18 577.7 83.96 587.01 36.06 555.98 24.72 444.52 90.52"/>
 <polygon class="f" points="354.51 195.18 451.44 116.55 551.26 35.59 570.72 16.37 543.04 5.86 469.78 26.31 346.91 82.41 330.57 157.07"/>
 <polygon class="c" points="258.82 209.64 283.43 257.76 354.51 195.18 354.73 143.18 354.97 88.91 300.3 145.74"/>
 <polygon class="f" points="284.89 201.03 283.82 132.98 245.45 133.94 209.32 211.39 209.53 265.05 202.31 422.8 277.33 274.62"/>
 <polygon class="d" points="354.51 195.18 318.27 198.22 284.89 201.03 202.31 422.8 268.99 323.08"/>
 <polygon class="d" points="209.53 265.05 225.86 205.45 245.45 133.94 157.16 269.41"/>
 <polygon class="f" points="245.45 133.94 301.48 136.45 354.97 88.91 275.66 59.42 139 44.21"/>
 <polygon class="c" points="139 44.21 287.77 75.01 354.97 88.91 348.14 53.88 306.32 49.68"/>
 <polygon class="b" points="393.94 11.53 306.32 49.68 354.97 88.91 412.38 57.61 441.91 26.85"/>
 <polygon class="c" points="441.91 26.85 354.97 88.91 543.04 5.86 571.25 0"/>
 <polygon class="b" points="571.25 0 543.04 5.86 551.26 35.59 587.01 36.06"/>
 <polygon class="b" points="151.49 224.62 33.55 321.2 103.23 316.08"/>
 <polygon class="f" points="145.63 400.32 200.67 282.86 0 447.89"/>
 <polygon class="b" points="262.66 413.33 132.89 597.28 236.55 530.32"/>
 <polygon class="d" points="374.93 617.53 350.75 441.52 396.59 364.19 412.64 459.88"/>
 <polygon class="d" points="277.5 507.65 312.09 557.16 324.24 472.27"/>
 <polygon class="d" points="185.82 455.66 119.65 488.21 183.32 389.39"/>
 <polygon class="f" points="441.13 526.17 473.16 366.86 489.5 454.43"/>
 <polygon class="d" points="354.97 88.91 354.97 88.91 245.45 133.94 284.89 201.03 316.79 149.99"/>
 <polygon class="f" points="353.83 211.72 346.35 393 402.14 326.47 373.25 246.84 356.02 199.33 354.51 195.18"/>
</svg>
